<?xml version="1.0" encoding="utf-8"?>
<!-- Generator: Adobe Illustrator 16.0.4, SVG Export Plug-In . SVG Version: 6.00 Build 0)  -->
<!DOCTYPE svg PUBLIC "-//W3C//DTD SVG 1.1//EN" "http://www.w3.org/Graphics/SVG/1.1/DTD/svg11.dtd">
<svg version="1.1" id="Layer_1" xmlns="http://www.w3.org/2000/svg" xmlns:xlink="http://www.w3.org/1999/xlink" x="0px" y="0px"
	 width="78.25px" height="75.25px" viewBox="0 0 78.25 75.25" enable-background="new 0 0 78.25 75.25" xml:space="preserve">
<g>
	<path fill-rule="evenodd" clip-rule="evenodd" fill="#303030" d="M29.795,14.729c-0.817,0-1.687,0-2.556,0
		c-6.391,0-12.781,0.018-19.172-0.021c-0.93-0.006-1.925-0.121-2.771-0.47c-1.475-0.607-2.161-1.917-1.952-3.212
		c0.219-1.356,1.47-2.552,2.953-2.744C6.927,8.2,7.573,8.238,8.212,8.237c6.312-0.002,12.622-0.002,18.933-0.002
		c0.873,0,1.745,0,2.529,0c5.183-9.214,14.791-7.949,18.81,0c0.73,0,1.593,0,2.455,0c6.311,0,12.622,0,18.933,0.001
		c0.56,0,1.121-0.024,1.677,0.016c1.877,0.135,3.307,1.448,3.393,3.088c0.077,1.466-1.445,3.111-3.165,3.35
		c-0.628,0.087-1.276,0.037-1.915,0.037c-6.471,0.002-12.941,0.035-19.411-0.023c-1.41-0.013-2.288,0.33-3.073,1.642
		c-3.75,6.253-12.211,6.392-16.321,0.349C30.654,16.104,30.286,15.496,29.795,14.729z"/>
	<path fill-rule="evenodd" clip-rule="evenodd" fill="#303030" d="M64.812,40.77c-4.849,9.179-14.806,8.01-18.624,0.005
		c-0.8,0-1.737,0-2.674,0c-11.587,0-23.173,0.001-34.759-0.001c-0.72,0-1.442,0.034-2.156-0.024
		c-1.772-0.146-3.141-1.395-3.274-2.934c-0.136-1.562,1.223-3.176,3.011-3.472c0.702-0.116,1.435-0.06,2.153-0.06
		c11.586-0.003,23.172-0.002,34.759-0.002c0.952,0,1.905,0,2.926,0c0.422-0.676,0.78-1.284,1.171-1.871
		c3.995-6.001,12.342-6.061,16.195,0.015c0.914,1.44,1.823,1.982,3.42,1.878c1.512-0.099,3.04-0.087,4.552,0.012
		c1.896,0.123,3.478,1.735,3.43,3.34c-0.052,1.712-1.548,3.049-3.612,3.102C69.178,40.812,67.023,40.77,64.812,40.77z"/>
	<path fill-rule="evenodd" clip-rule="evenodd" fill="#303030" d="M13.374,60.517c4.874-8.842,14.237-8.442,18.832,0
		c0.806,0,1.749,0,2.693,0c11.679,0,23.356,0,35.034,0.003c0.72,0,1.45-0.042,2.155,0.064c1.405,0.212,2.689,1.569,2.83,2.878
		c0.139,1.291-0.879,2.813-2.351,3.212c-0.906,0.245-1.893,0.264-2.843,0.265c-11.518,0.017-23.036,0.038-34.555-0.015
		c-1.939-0.01-3.188,0.37-4.477,2.193c-4.339,6.138-12.236,5.529-15.996-0.319c-0.893-1.39-1.832-2.021-3.451-1.869
		c-1.189,0.11-2.397,0.026-3.598,0.015c-0.479-0.006-0.968,0.006-1.434-0.087c-1.762-0.353-2.983-1.771-2.893-3.304
		c0.089-1.518,1.482-2.873,3.212-2.999c1.194-0.087,2.398-0.032,3.599-0.036C11.246,60.515,12.358,60.517,13.374,60.517z"/>
</g>
</svg>
