<?xml version="1.0" encoding="utf-8"?>
<!-- Generator: Adobe Illustrator 16.0.4, SVG Export Plug-In . SVG Version: 6.00 Build 0)  -->
<!DOCTYPE svg PUBLIC "-//W3C//DTD SVG 1.1//EN" "http://www.w3.org/Graphics/SVG/1.1/DTD/svg11.dtd">
<svg version="1.1" id="Layer_1" xmlns="http://www.w3.org/2000/svg" xmlns:xlink="http://www.w3.org/1999/xlink" x="0px" y="0px"
	 width="120px" height="auto" viewBox="0 0 119.25 87.5" enable-background="new 0 0 119.25 87.5" xml:space="preserve">
<g>
	<path fill-rule="evenodd" clip-rule="evenodd" fill="#303030" d="M115.461,20.636c-4.393,13.262-8.789,26.461-13.126,39.68
		c-1.367,4.166-4.063,6.787-8.295,7.983c-5.317,1.505-10.613,3.084-15.882,4.75c-7.842,2.48-11.222,5.075-15.194,11.098
		c0-5.61-0.125-11.821,0.031-18.026c0.201-7.97,0.646-15.934,0.951-23.901c0.188-4.91,0.942-5.989,5.633-7.479
		c14.785-4.692,29.577-9.365,44.363-14.057C114.36,20.551,114.736,20.269,115.461,20.636z"/>
	<path fill-rule="evenodd" clip-rule="evenodd" fill="#303030" d="M57.398,84.411c-4.613-7.976-12.384-10.629-20.395-12.916
		c-3.776-1.078-7.546-2.173-11.322-3.251c-4.192-1.196-6.869-3.838-8.235-8.032C13.149,47.013,8.738,33.85,4.225,20.23
		c7.598,2.416,14.788,4.716,21.987,6.988c8.253,2.605,16.505,5.22,24.78,7.762c2.777,0.853,4.505,2.427,4.627,5.465
		C56.207,55.101,56.804,69.756,57.398,84.411z"/>
	<path fill-rule="evenodd" clip-rule="evenodd" fill="#303030" d="M111.297,8.213c-0.862,3.059-1.581,5.6-2.295,8.142
		c-0.293,1.04-0.963,1.554-2.019,1.884C93.73,22.385,80.482,26.55,67.263,30.807c-1.716,0.552-1.765-0.118-1.736-1.427
		c0.058-2.68,0.689-5.028,3.503-6.039C82.935,18.343,96.852,13.379,111.297,8.213z"/>
	<path fill-rule="evenodd" clip-rule="evenodd" fill="#303030" d="M25.396,9.345c3.409,6.672,9.372,8.773,15.253,10.933
		c2.933,1.077,5.96,1.893,8.935,2.855c1.372,0.443,2.746,0.962,3.542,2.269c1.016,1.67,1.654,3.745,0.724,5.324
		c-0.538,0.913-2.393-0.371-3.605-0.756c-6.729-2.136-13.403-4.442-20.15-6.516c-2.023-0.621-3.113-1.807-3.873-3.65
		C24.914,16.631,24.763,13.385,25.396,9.345z"/>
	<path fill-rule="evenodd" clip-rule="evenodd" fill="#303030" d="M40.519,17.622c-5.256-1.307-9.486-3.909-12.453-8.283
		c-1.896-2.795-0.543-5.613,2.79-6.131c1.408-0.219,2.833-0.126,4.255,0.201c2.233,0.515,3.825,1.07,2.977,4.115
		C37.329,10.253,38.026,11.755,40.519,17.622z"/>
</g>
</svg>
