<?xml version="1.0" encoding="utf-8"?>
<!-- Generator: Adobe Illustrator 16.0.4, SVG Export Plug-In . SVG Version: 6.00 Build 0)  -->
<!DOCTYPE svg PUBLIC "-//W3C//DTD SVG 1.1//EN" "http://www.w3.org/Graphics/SVG/1.1/DTD/svg11.dtd">
<svg version="1.1" id="Layer_1" xmlns="http://www.w3.org/2000/svg" xmlns:xlink="http://www.w3.org/1999/xlink" x="0px" y="0px"
	 width="78.25px" height="75.25px" viewBox="0 0 78.25 75.25" enable-background="new 0 0 78.25 75.25" xml:space="preserve">
<path fill-rule="evenodd" clip-rule="evenodd" fill="#303030" d="M44.255,42.754c0,8.546,0.011,16.568-0.004,24.59
	c-0.008,4.076-1.861,6.285-5.185,6.253c-3.305-0.032-5.061-2.217-5.067-6.365c-0.011-8.011-0.003-16.023-0.003-24.478
	c-2.376,0-4.579,0-6.782,0c-6.099,0-12.199,0.026-18.297-0.011c-3.583-0.02-5.708-1.919-5.764-5.019
	c-0.059-3.263,2.082-5.206,5.875-5.221c7.169-0.028,14.338-0.009,21.507-0.009c1.042,0,2.085,0,3.46,0c0-7.749,0-15.206,0-22.664
	c0-1.07-0.048-2.144,0.017-3.209c0.183-3.011,2.265-4.995,5.156-4.97c2.884,0.024,5.02,2.021,5.055,5.066
	c0.083,7.168,0.029,14.338,0.031,21.507c0,1.273,0,2.546,0,4.271c2.15,0,4.138,0,6.125,0c6.419,0.001,12.84-0.036,19.26,0.017
	c3.314,0.028,5.401,2.016,5.459,4.997c0.059,3.136-2.062,5.208-5.555,5.23c-7.277,0.048-14.552,0.015-21.829,0.016
	C46.669,42.755,45.623,42.754,44.255,42.754z"/>
</svg>
